<?xml version="1.0" standalone="no"?>
<!DOCTYPE svg PUBLIC "-//W3C//DTD SVG 20010904//EN"
 "http://www.w3.org/TR/2001/REC-SVG-20010904/DTD/svg10.dtd">
<svg version="1.0" xmlns="http://www.w3.org/2000/svg"
 width="1500.000000pt" height="1500.000000pt" viewBox="0 0 1500.000000 1500.000000"
 preserveAspectRatio="xMidYMid meet">

<g transform="translate(0.000000,1500.000000) scale(0.100000,-0.100000)"
fill="#7b2a76" stroke="none">
<path class="st1" fill="#472f47" d="M5525 9256 c-94 -55 -299 -177 -457 -269 l-286 -168 -198 -337 c-109
-185 -231 -393 -271 -461 -40 -68 -72 -125 -71 -126 2 -1 74 40 162 91 87 52
160 94 161 94 1 0 5 -32 7 -71 4 -53 14 -87 39 -139 25 -49 33 -75 28 -93 -10
-39 11 -71 49 -75 64 -6 97 -109 69 -211 -9 -30 -15 -57 -13 -58 8 -9 125 47
152 73 31 28 34 37 34 88 0 31 -6 71 -14 89 -13 32 -78 97 -97 97 -5 0 -7 11
-3 25 4 16 0 35 -11 51 -14 22 -23 25 -58 22 -40 -3 -42 -1 -67 42 -22 40 -25
56 -24 140 0 82 5 106 31 172 50 126 151 289 243 395 50 56 40 23 -11 -40 -74
-92 -138 -191 -180 -282 -37 -81 -57 -145 -43 -145 4 0 112 61 240 137 l233
136 137 236 c76 130 191 328 257 441 66 113 126 215 133 228 8 12 11 22 7 21
-5 -1 -85 -47 -178 -103z"/>
<path class="st1" fill="#472f47" d="M5315 8645 l-130 -224 -225 -132 c-124 -72 -227 -133 -229 -136 -3
-2 31 -39 74 -83 71 -72 83 -80 117 -80 203 0 688 479 688 680 0 43 -4 49 -78
123 -42 42 -80 77 -82 77 -3 0 -63 -101 -135 -225z"/>
<path d="M5686 8698 c-3 -7 -7 -32 -9 -55 -12 -100 -106 -249 -261 -410 -174
-182 -345 -296 -462 -311 l-59 -7 -3 -44 c-3 -39 1 -48 32 -80 51 -52 76 -114
76 -189 0 -78 -19 -122 -72 -165 l-38 -31 2 -265 3 -266 73 1 c115 1 106 -30
110 412 2 207 1 405 -3 440 -7 70 -17 80 -94 91 -43 6 -46 8 -46 36 l0 30 455
0 455 0 0 -175 0 -175 -33 -3 c-20 -2 -33 2 -36 10 -54 196 -93 227 -291 231
l-110 2 0 -190 0 -190 29 3 c77 8 116 58 137 176 12 62 14 66 39 66 49 0 50
-5 50 -295 0 -290 -1 -295 -51 -295 -23 0 -27 5 -33 43 -18 115 -62 182 -129
197 -30 6 -40 5 -44 -6 -11 -30 3 -364 16 -377 18 -18 204 -13 260 7 88 32
155 107 190 209 19 56 41 69 70 43 17 -15 17 -22 0 -139 -10 -67 -19 -130 -19
-139 0 -16 11 -18 100 -18 65 0 113 5 135 14 l35 15 0 445 c0 444 0 445 -21
457 -12 6 -42 14 -68 18 -43 6 -46 8 -46 36 l0 30 302 3 c337 3 396 -4 510
-58 125 -58 227 -190 264 -340 21 -87 17 -242 -9 -325 -34 -111 -106 -210
-202 -277 -24 -17 -17 -18 195 -15 157 1 226 6 243 15 l22 13 0 444 c0 333 -3
446 -12 451 -6 4 -37 13 -67 19 -53 10 -56 13 -56 40 l0 30 355 0 c404 0 420
-3 506 -78 149 -131 120 -338 -59 -418 l-28 -13 68 -31 c117 -54 170 -140 161
-260 -7 -75 -38 -137 -95 -185 l-38 -31 298 3 299 3 19 24 c17 20 19 40 19
165 l0 141 -148 268 c-81 147 -159 283 -174 301 -20 25 -39 36 -68 41 -33 6
-40 11 -40 29 0 44 10 46 276 46 217 0 253 -2 265 -16 19 -24 0 -46 -52 -58
-36 -9 -43 -15 -41 -31 3 -18 205 -400 221 -417 7 -8 200 313 226 376 16 37
16 41 0 52 -9 6 -36 15 -60 19 -38 5 -45 10 -45 29 0 42 15 46 185 46 170 0
185 -4 185 -46 0 -17 -9 -24 -45 -33 -56 -14 -64 -24 -246 -330 l-139 -233 0
-168 c0 -221 -19 -204 241 -208 l199 -3 0 920 0 921 -1885 0 c-1500 0 -1886
-3 -1889 -12z"/>
<path d="M6462 7356 c2 -244 7 -448 11 -453 5 -4 34 -8 65 -7 161 3 240 127
249 395 8 209 -21 335 -98 422 -43 50 -91 72 -177 82 l-53 6 3 -445z"/>
<path d="M7650 7605 l0 -195 23 4 c12 3 39 8 60 11 88 14 147 113 132 219 -14
88 -69 138 -167 150 l-48 6 0 -195z"/>
<path d="M7645 7193 c-9 -143 -2 -270 15 -287 18 -18 105 -10 147 14 59 32 86
80 91 157 5 77 -15 138 -61 183 -31 30 -64 43 -143 54 l-42 6 -7 -127z"/>
</g>
</svg>
